<svg xmlns="http://www.w3.org/2000/svg" viewBox="0 0 1180 420" role="img" aria-labelledby="title desc">
  <title id="title">中英双语锁定 Moon Gate Logo</title>
  <desc id="desc">Bilingual logo lockup for Super Creator Becoming and Becoming Supercreators.</desc>
  <rect width="1180" height="420" rx="42" fill="#0D0B0C"/>
  <g transform="translate(70 68)">
    <path d="M43 137 L43 82 C43 49 63 31 90 31 C117 31 137 49 137 82 L137 137" fill="none" stroke="#84EE80" stroke-width="11" stroke-linecap="round"/>
    <circle cx="91" cy="88" r="43" fill="#84EE80"/>
    <circle cx="108" cy="75" r="47" fill="#0D0B0C"/>
    <path d="M42 139 C66 126 88 148 114 134 C129 126 142 128 158 116" fill="none" stroke="#F4F1E8" stroke-width="4" stroke-linecap="round"/>
  </g>
  <text x="258" y="128" fill="#F4F1E8" font-family="'Hiragino Sans GB', 'PingFang SC', 'Source Han Sans SC', 'Microsoft YaHei', sans-serif" font-size="62" font-weight="900">超级创造者养成记</text>
  <text x="260" y="184" fill="#84EE80" font-family="'Avenir Next Condensed', 'Arial Narrow', Arial, sans-serif" font-size="31" font-weight="900">BECOMING SUPERCREATORS</text>
  <path d="M262 224 C366 194 445 245 553 212 C663 178 742 233 879 191" fill="none" stroke="#5B845A" stroke-width="3.4" stroke-linecap="round"/>
  <path d="M264 232 C367 202 446 253 554 220 C664 186 743 241 880 199" fill="none" stroke="#84EE80" stroke-width="3.4" stroke-linecap="round"/>
  <g transform="translate(290 231)">
    <circle r="8" fill="#84EE80"/><circle cx="4" cy="-1" r="10" fill="#0D0B0C"/>
    <circle cx="196" r="8" fill="#84EE80"/><rect x="188" y="-9" width="8" height="18" fill="#0D0B0C"/>
    <circle cx="392" r="9" fill="#AFF3AD"/>
    <circle cx="588" r="8" fill="#84EE80"/><rect x="588" y="-9" width="8" height="18" fill="#0D0B0C"/>
  </g>
  <text x="263" y="292" fill="#5B845A" font-family="Arial, sans-serif" font-size="14" font-weight="900">MOON GATE · PHASE ORBIT · TIDAL LINE · CREATOR FIELD</text>
</svg>
